<svg width="20" height="23" viewBox="0 0 20 23" fill="none" xmlns="http://www.w3.org/2000/svg">
<path d="M2.66667 0.833328C1.95942 0.833328 1.28115 1.11428 0.781048 1.61438C0.280951 2.11447 0 2.79275 0 3.49999V6.16666C0 6.87391 0.280951 7.55218 0.781048 8.05228C1.28115 8.55238 1.95942 8.83333 2.66667 8.83333H13.3333C14.0406 8.83333 14.7189 8.55238 15.219 8.05228C15.719 7.55218 16 6.87391 16 6.16666V3.49999C16 2.79275 15.719 2.11447 15.219 1.61438C14.7189 1.11428 14.0406 0.833328 13.3333 0.833328H2.66667ZM1.33333 3.49999C1.33333 3.14637 1.47381 2.80723 1.72386 2.55719C1.97391 2.30714 2.31304 2.16666 2.66667 2.16666H13.3333C13.687 2.16666 14.0261 2.30714 14.2761 2.55719C14.5262 2.80723 14.6667 3.14637 14.6667 3.49999V6.16666C14.6667 6.52028 14.5262 6.85942 14.2761 7.10947C14.0261 7.35952 13.687 7.5 13.3333 7.5H2.66667C2.31304 7.5 1.97391 7.35952 1.72386 7.10947C1.47381 6.85942 1.33333 6.52028 1.33333 6.16666V3.49999ZM5.33333 16.1667C5.15652 16.1667 4.98695 16.2369 4.86193 16.3619C4.7369 16.4869 4.66667 16.6565 4.66667 16.8333C4.66667 17.0101 4.7369 17.1797 4.86193 17.3047C4.98695 17.4298 5.15652 17.5 5.33333 17.5H10.6667C10.8435 17.5 11.013 17.4298 11.1381 17.3047C11.2631 17.1797 11.3333 17.0101 11.3333 16.8333C11.3333 16.6565 11.2631 16.4869 11.1381 16.3619C11.013 16.2369 10.8435 16.1667 10.6667 16.1667H5.33333ZM11.8387 11.5H2.66667C1.95942 11.5 1.28115 11.7809 0.781048 12.281C0.280951 12.7811 0 13.4594 0 14.1667V19.5C0 20.2072 0.280951 20.8855 0.781048 21.3856C1.28115 21.8857 1.95942 22.1667 2.66667 22.1667H13.3333C14.0406 22.1667 14.7189 21.8857 15.219 21.3856C15.719 20.8855 16 20.2072 16 19.5V18.0533C15.5686 18.2058 15.098 18.2058 14.6667 18.0533V19.5C14.6667 19.8536 14.5262 20.1928 14.2761 20.4428C14.0261 20.6929 13.687 20.8333 13.3333 20.8333H2.66667C2.31304 20.8333 1.97391 20.6929 1.72386 20.4428C1.47381 20.1928 1.33333 19.8536 1.33333 19.5V14.1667C1.33333 13.813 1.47381 13.4739 1.72386 13.2239C1.97391 12.9738 2.31304 12.8333 2.66667 12.8333H10.78C10.8797 12.5524 11.041 12.2973 11.252 12.0867L11.8387 11.5ZM20 8.16666C20 7.98985 19.9298 7.82028 19.8047 7.69526C19.6797 7.57023 19.5101 7.5 19.3333 7.5C19.1565 7.5 18.987 7.57023 18.8619 7.69526C18.7369 7.82028 18.6667 7.98985 18.6667 8.16666V10.8333C18.6667 11.3638 18.456 11.8725 18.0809 12.2475C17.7058 12.6226 17.1971 12.8333 16.6667 12.8333H14.276L15.8053 11.3053C15.9305 11.1801 16.0008 11.0104 16.0008 10.8333C16.0008 10.6563 15.9305 10.4865 15.8053 10.3613C15.6802 10.2361 15.5104 10.1658 15.3333 10.1658C15.1563 10.1658 14.9865 10.2361 14.8613 10.3613L12.1947 13.028C12.1326 13.0899 12.0833 13.1635 12.0497 13.2445C12.0161 13.3255 11.9988 13.4123 11.9988 13.5C11.9988 13.5877 12.0161 13.6745 12.0497 13.7555C12.0833 13.8365 12.1326 13.9101 12.1947 13.972L14.8613 16.6387C14.9865 16.7638 15.1563 16.8342 15.3333 16.8342C15.5104 16.8342 15.6802 16.7638 15.8053 16.6387C15.9305 16.5135 16.0008 16.3437 16.0008 16.1667C16.0008 15.9896 15.9305 15.8198 15.8053 15.6947L14.276 14.1667H16.6667C17.1044 14.1667 17.5379 14.0804 17.9423 13.9129C18.3467 13.7454 18.7142 13.4999 19.0237 13.1904C19.3332 12.8808 19.5787 12.5134 19.7463 12.1089C19.9138 11.7045 20 11.2711 20 10.8333V8.16666Z" fill="black"/>
</svg>
