<svg width="31" height="31" viewBox="0 0 31 31" fill="none" xmlns="http://www.w3.org/2000/svg">
<path d="M6.64789 24.1565L13.9822 24.1316L29.9903 8.27641C30.6185 7.64818 30.9642 6.81387 30.9642 5.92638C30.9642 5.03889 30.6185 4.20458 29.9903 3.57635L27.3544 0.940468C26.0979 -0.315982 23.9058 -0.309334 22.6593 0.935482L6.64789 16.794V24.1565ZM25.0044 3.29049L27.6452 5.92139L24.9911 8.55063L22.3552 5.91641L25.0044 3.29049ZM9.97183 18.1801L19.9935 8.25314L22.6294 10.889L12.6094 20.8127L9.97183 20.821V18.1801Z" fill="#454545"/>
<path d="M3.32394 30.7828H26.5915C28.4247 30.7828 29.9155 29.2921 29.9155 27.4589V13.0529L26.5915 16.3769V27.4589H8.57244C8.52923 27.4589 8.48436 27.4755 8.44115 27.4755C8.3863 27.4755 8.33146 27.4606 8.27495 27.4589H3.32394V4.19131H14.7035L18.0274 0.867371H3.32394C1.49079 0.867371 0 2.35816 0 4.19131V27.4589C0 29.2921 1.49079 30.7828 3.32394 30.7828Z" fill="#454545"/>
</svg>
