<svg width="20" height="25" viewBox="0 0 20 25" fill="none" xmlns="http://www.w3.org/2000/svg">
<path fill-rule="evenodd" clip-rule="evenodd" d="M4.30769 18.75H3.07692V20.3125H4.30769C4.76923 20.3125 5.07692 20 5.07692 19.5312C5.07692 19.0625 4.76923 18.75 4.30769 18.75ZM12.3077 0H0V25H20V7.8125L12.3077 0ZM6.46154 19.6875C6.46154 20.9375 5.53846 21.875 4.30769 21.875H3.07692V23.4375H1.53846V17.1875H4.30769C5.53846 17.1875 6.46154 18.125 6.46154 19.375V19.6875ZM12.7692 20.4688C12.7692 22.0312 11.5385 23.4375 9.84615 23.4375H7.69231V17.1875H9.84615C11.3846 17.1875 12.7692 18.4375 12.7692 20.1562V20.4688ZM18.4615 18.75H15.3846V20.3125H17.6923V21.875H15.3846V23.4375H13.8462V17.1875H18.4615V18.75ZM18.4615 15.625H1.53846V1.5625H12.3077V7.8125H18.4615V15.625ZM9.84615 18.75H9.23077V21.875H9.84615C10.7692 21.875 11.3846 21.25 11.3846 20.3125C11.3846 19.375 10.6154 18.75 9.84615 18.75Z" fill="black"/>
</svg>
