<svg width="86" height="106" viewBox="0 0 86 106" fill="none" xmlns="http://www.w3.org/2000/svg">
<path fill-rule="evenodd" clip-rule="evenodd" d="M18.5231 79.5H13.2308V86.125H18.5231C20.5077 86.125 21.8308 84.8 21.8308 82.8125C21.8308 80.825 20.5077 79.5 18.5231 79.5ZM52.9231 0H0V106H86V33.125L52.9231 0ZM27.7846 83.475C27.7846 88.775 23.8154 92.75 18.5231 92.75H13.2308V99.375H6.61538V72.875H18.5231C23.8154 72.875 27.7846 76.85 27.7846 82.15V83.475ZM54.9077 86.7875C54.9077 93.4125 49.6154 99.375 42.3385 99.375H33.0769V72.875H42.3385C48.9538 72.875 54.9077 78.175 54.9077 85.4625V86.7875ZM79.3846 79.5H66.1538V86.125H76.0769V92.75H66.1538V99.375H59.5385V72.875H79.3846V79.5ZM79.3846 66.25H6.61538V6.625H52.9231V33.125H79.3846V66.25ZM42.3385 79.5H39.6923V92.75H42.3385C46.3077 92.75 48.9538 90.1 48.9538 86.125C48.9538 82.15 45.6462 79.5 42.3385 79.5Z" fill="#8C8C8C"/>
</svg>
